<svg width="512" height="512" viewBox="0 0 512 512" fill="none" xmlns="http://www.w3.org/2000/svg">
  <defs>
    <linearGradient id="ferbGradient" x1="64" y1="48" x2="438" y2="472" gradientUnits="userSpaceOnUse">
      <stop stop-color="#FFF4CC"/>
      <stop offset="0.42" stop-color="#F59E0B"/>
      <stop offset="1" stop-color="#EA580C"/>
    </linearGradient>
    <linearGradient id="shieldGradient" x1="148" y1="140" x2="374" y2="388" gradientUnits="userSpaceOnUse">
      <stop stop-color="#103B2C"/>
      <stop offset="1" stop-color="#0F766E"/>
    </linearGradient>
  </defs>
  <rect x="28" y="28" width="456" height="456" rx="128" fill="url(#ferbGradient)"/>
  <rect x="48" y="48" width="416" height="416" rx="108" fill="#FFFFFF" fill-opacity="0.12"/>
  <path d="M146 176C146 154.908 163.092 137.816 184.184 137.816H327.816C348.908 137.816 366 154.908 366 176V336C366 357.092 348.908 374.184 327.816 374.184H184.184C163.092 374.184 146 357.092 146 336V176Z" fill="url(#shieldGradient)"/>
  <path d="M190 166H321C334.255 166 345 176.745 345 190V204H167V189C167 176.297 177.297 166 190 166Z" fill="#D1FAE5" fill-opacity="0.85"/>
  <path d="M208 248H318" stroke="#FFF7ED" stroke-width="36" stroke-linecap="round"/>
  <path d="M208 308H284" stroke="#FFF7ED" stroke-width="36" stroke-linecap="round"/>
  <circle cx="332" cy="306" r="50" fill="#FB923C"/>
  <path d="M331.5 276V306L350 324.5" stroke="#FFF7ED" stroke-width="18" stroke-linecap="round" stroke-linejoin="round"/>
  <text x="86" y="430" fill="#FFF7ED" font-size="84" font-weight="800" font-family="Noto Sans, Segoe UI, Arial, sans-serif">F</text>
</svg>
